PathFileType	4	(X/Y/Z)	C:\Users\WrightLab\Desktop\Jo\P1.2Trial27.trc
DataRate	CameraRate	NumFrames	NumMarkers	Units	OrigDataRate	OrigDataStartFrame	OrigNumFrames
100.00	100.00	       44	19	mm	100.00	1	       946
Frame#	Time	Headset_Front			Headset_Back			Headset_Left			Headset_Right			Left_Shoulder			Right_Shoulder			Sternum			C7			Left Elbow			Right Elbow			Left Wrist			Right Wrist			Left ASIS			Right ASIS			S2			Left Knee			Right Knee			Left Ankle			Right Ankle			
		X1	Y1	Z1	X2	Y2	Z2	X3	Y3	Z3	X4	Y4	Z4	X5	Y5	Z5	X6	Y6	Z6	X7	Y7	Z7	X8	Y8	Z8	X9	Y9	Z9	X10	Y10	Z10	X11	Y11	Z11	X12	Y12	Z12	X13	Y13	Z13	X14	Y14	Z14	X15	Y15	Z15	X16	Y16	Z16	X17	Y17	Z17	X18	Y18	Z18	X19	Y19	Z19	

1	0.000																																																										
2	0.010																																																										
3	0.020																																																										
4	0.030																																																										
5	0.040																																																										
6	0.050																																																										
7	0.060																																																										
8	0.070																																																										
9	0.080																																																										
10	0.090																																																										
11	0.100																																																										
12	0.110																																		-27.61601	959.85742	2036.05188																						
13	0.120																																		-32.01163	955.83496	2033.77966																						
14	0.130																																		-36.93165	951.15399	2031.78308																						
15	0.140																																		-42.22435	945.95270	2029.92969																						
16	0.150																																		-47.32234	939.78644	2029.93445																						
17	0.160																																		-53.56441	934.25739	2028.01306																						
18	0.170																																		-59.54493	928.45892	2027.03284																						
19	0.180																																		-66.13312	923.25812	2026.76660																						
20	0.190																																		-72.96941	918.34674	2026.40625																						
21	0.200																																		-78.29459	914.24249	2026.41125																						
22	0.210																																		-88.87026	906.56946	2036.44568																						
23	0.220																																		-91.86515	904.67377	2034.10608																						
24	0.230																																		-93.85995	903.10706	2031.08215																						
25	0.240																																		-95.10664	901.36694	2027.41443																						
26	0.250																																		-96.36139	900.89423	2026.21594																						
27	0.260																																		-98.10899	900.41754	2022.22046																						
28	0.270																																		-99.54675	899.05817	2018.62781																						
29	0.280																																		-101.34153	898.50214	2013.61694																						
30	0.290																																		-102.57059	897.13312	2008.34497																						
31	0.300																																		-103.33017	897.91394	2003.37524																						
32	0.310																																		-104.31042	897.97681	1997.92712																						
33	0.320																																		-105.13154	898.16888	1992.52197																						
34	0.330																																		-105.64104	898.60583	1986.92419																						
35	0.340																																		-106.98524	899.12842	1979.76917																						
36	0.350																																		-105.74210	901.08929	1971.65002																						
37	0.360																																		-106.54118	902.21667	1963.75732																						
38	0.370																																		-107.40970	903.36212	1957.51270																						
39	0.380																																		-108.23650	904.04364	1952.64551																						
40	0.390																																		-109.24650	905.94568	1945.24695																						
41	0.400																																		-110.38935	907.77905	1938.04797																						
42	0.410																																		-109.95083	910.36353	1928.20569																						
43	0.420																																		-111.09982	911.40271	1922.03796																						
44	0.430																																		-112.65033	913.27252	1915.13611																						
